# xmcd
#
# Track frame offsets:
#	150
#	22582
#	39155
#	55112
#	76100
#	98495
#	115190
#	129760
#	148692
#	160340
#	181970
#	205482
#	234317
#	257370
#	276200
#	291975
#
# Disc length: 4180
#
# Revision: 5
# Processed by: cddbd v1.5.1PL0 Copyright (c) Steve Scherf et al.
# Submitted via: CDex 1.40Release
# Normalized: r4:DSETVAR1
#
DISCID=c7105210
DTITLE=Various Artist - King of the Hill
DYEAR=1999
DGENRE=Soundtrack
TTITLE0=Travis Tritt with George Thorogood - Move It On Over
TTITLE1=Barenaked Ladies - Get In Line
TTITLE2=The Mavericks - Down On The Corner
TTITLE3=Sheryl Crow - Straight To The Moon
TTITLE4=Brooks And Dunn - Against The Wind
TTITLE5=Faith Hill - Piece Of My Heart
TTITLE6=Trace Adkins - I Know A Little
TTITLE7=The Hill Family Singers - Mow Against The Grain
TTITLE8=Tonic - East Bound And Down
TTITLE9=Deana Carter - Free Fallin'
TTITLE10=Willie Nelson and Mark McGrath - Angel Flying Too Close To The Ground
TTITLE11=Hank Hill - Teddy Bear
TTITLE12=Old 97's - El Paso
TTITLE13=Luanne Platter - One Tin Soldier
TTITLE14=The Refreshments - King Of The Hill Theme
TTITLE15=(16) - (16)
EXTD=YEAR: 1999 ID3G: 24
EXTT0=
EXTT1=
EXTT2=
EXTT3=
EXTT4=
EXTT5=
EXTT6=
EXTT7=
EXTT8=
EXTT9=
EXTT10=
EXTT11=
EXTT12=
EXTT13=
EXTT14=
EXTT15=
PLAYORDER=
